# xmcd
#
# Track frame offsets: 
#        150
#        17710
#        49315
#        69197
#        86825
#        109102
#        132030
#        155347
#        170745
#
# Disc length: 2722 seconds
#
# Revision: 6
# Processed by: cddbd v1.5.2PL0 Copyright (c) Steve Scherf et al.
# Submitted via: ExactAudioCopy v0.99pb5
#
DISCID=710aa009
DTITLE=Melvin Taylor and The Slack Band - Dirty Pool
DYEAR=1997
DGENRE=Blues
TTITLE0=Too Sorry
TTITLE1=Dirty Pool
TTITLE2=I Ain't Superstitious
TTITLE3=Kansas City
TTITLE4=Floodin' in California
TTITLE5=Born Under a Bad Sign
TTITLE6=Right Place, Wrong Time
TTITLE7=Telephone Song
TTITLE8=Merry Christmas Baby
EXTD=
EXTT0=
EXTT1=
EXTT2=
EXTT3=
EXTT4=
EXTT5=
EXTT6=
EXTT7=
EXTT8=
PLAYORDER=
